<?xml version="1.0" standalone="no"?>
<!DOCTYPE svg PUBLIC "-//W3C//DTD SVG 20010904//EN"
 "http://www.w3.org/TR/2001/REC-SVG-20010904/DTD/svg10.dtd">
<svg version="1.0" xmlns="http://www.w3.org/2000/svg"
 width="260.000000pt" height="260.000000pt" viewBox="0 0 260.000000 260.000000"
 preserveAspectRatio="xMidYMid meet">
<metadata>
Created by potrace 1.14, written by Peter Selinger 2001-2017
</metadata>
<g transform="translate(0.000000,260.000000) scale(0.100000,-0.100000)"
fill="#000000" stroke="none">
<path d="M1431 2528 c-5 -165 -78 -295 -218 -388 -84 -56 -167 -122 -192 -152
-32 -40 -68 -132 -74 -191 l-5 -47 40 32 c66 52 99 72 188 112 155 70 223 118
280 201 55 81 75 196 56 330 -8 54 -49 155 -64 155 -5 0 -10 -24 -11 -52z"/>
<path d="M1595 2148 c-18 -65 -66 -147 -118 -201 l-28 -30 31 -38 c29 -36 58
-92 67 -129 3 -8 5 -52 5 -96 1 -103 -27 -168 -103 -246 -72 -73 -140 -122
-294 -209 -255 -144 -397 -280 -489 -466 -30 -62 -66 -166 -72 -212 -10 -81
-11 -100 -3 -95 5 3 9 10 9 16 0 41 90 177 178 266 105 109 173 149 422 252
232 95 342 152 417 215 49 41 120 118 148 161 30 45 72 135 73 157 0 4 5 31
11 60 41 212 -49 451 -226 600 -21 18 -21 18 -28 -5z"/>
<path d="M1290 1837 c26 -20 58 -79 70 -129 19 -74 -12 -179 -79 -267 l-26
-35 34 20 c82 47 153 162 153 248 0 74 -57 145 -133 166 -27 8 -31 7 -19 -3z"/>
<path d="M1748 1141 c-9 -10 -42 -38 -74 -62 -33 -24 -61 -47 -64 -50 -3 -3
-41 -27 -84 -53 -78 -48 -126 -68 -281 -121 -157 -53 -337 -166 -439 -275 -90
-96 -146 -260 -140 -415 1 -33 3 -75 3 -92 1 -50 14 -39 34 29 31 106 68 169
142 244 85 86 173 139 356 215 171 72 233 111 323 203 92 94 220 292 240 370
8 31 6 32 -16 7z"/>
</g>
</svg>
